<?xml version="1.0" encoding="UTF-8" standalone="no"?> <svg id="Layer_1" data-name="Layer 1" xmlns="http://www.w3.org/2000/svg" viewBox="0 0 128 128"><defs><style>.cls-1{fill:#1d75b8;}.cls-2{fill:#2d3e50;}</style></defs><title>b</title><path className="cls-1" d="M105.48388,96.44373a16.16277,16.16277,0,0,1-8.76176.26759A13.09732,13.09732,0,0,1,93.4495,95.036c-1.649-1.03638-3.51808-2.21118-5.74782-2.28877a6.345,6.345,0,0,0-4.84827,2.00755,6.03832,6.03832,0,0,0-1.623,4.721,1.50353,1.50353,0,0,0,1.49407,1.35493q.07455,0,.15036-.00755a1.50325,1.50325,0,0,0,1.34728-1.64433,2.99275,2.99275,0,0,1,.82426-2.36741A3.33667,3.33667,0,0,1,87.597,95.7519a9.25761,9.25761,0,0,1,4.2527,1.8295,15.48221,15.48221,0,0,0,4.07643,2.02894,19.161,19.161,0,0,0,10.39907-.28017,1.50328,1.50328,0,0,0-.84135-2.88644Z"/><path className="cls-1" d="M84.57194,81.65831A2.69924,2.69924,0,0,0,81.873,78.95941H59.03379a2.69891,2.69891,0,0,0,0,5.39781H81.873A2.70314,2.70314,0,0,0,84.57194,81.65831Z"/><path className="cls-1" d="M104.70922,65.65874H59.03379a2.6989,2.6989,0,0,0,0,5.3978h45.67543a2.6989,2.6989,0,1,0,0-5.3978Z"/><path className="cls-1" d="M56.33792,55.057a2.70054,2.70054,0,0,0,2.69588,2.69889h45.67543a2.69889,2.69889,0,1,0,0-5.39779H59.03379A2.70054,2.70054,0,0,0,56.33792,55.057Z"/><path className="cls-1" d="M10.3944,14.40882h0a8.90463,8.90463,0,0,0-8.90464,8.90464V99.01531a9.57046,9.57046,0,0,0,1.61041,5.31333l5.81023,8.70446v2.593a1.48395,1.48395,0,1,0,2.9679.00013l.0001-2.59316,5.81023-8.70447A9.57046,9.57046,0,0,0,19.299,99.01531V23.31346A8.90463,8.90463,0,0,0,10.3944,14.40882Z"/><path className="cls-1" d="M25.97871,22.50783a2.226,2.226,0,0,0-2.226,2.22595V61.83915a2.226,2.226,0,0,0,4.45191,0V24.73378A2.226,2.226,0,0,0,25.97871,22.50783Z"/><path className="cls-2" d="M125.35344,34.06051,103.33965,12.04667a3.92179,3.92179,0,0,0-2.791-1.15681h-56.215A7.1087,7.1087,0,0,0,37.23579,17.992v92.01815a7.10684,7.10684,0,0,0,7.09786,7.1h75.07446a7.10912,7.10912,0,0,0,7.10213-7.1V36.85147A3.914,3.914,0,0,0,125.35344,34.06051Zm-6.73873,75.15621H45.13135V18.78545H96.60086V33.69925a7.10729,7.10729,0,0,0,7.1,7.1h14.91385Z"/></svg>