<?xml version="1.0" encoding="UTF-8" standalone="no"?> <svg width="64" height="64" viewBox="0 0 64 64" fill="none" xmlns="http://www.w3.org/2000/svg">
<path d="M20 13H27C27.5304 13 28.0391 13.2107 28.4142 13.5858C28.7893 13.9609 29 14.4696 29 15V18H18V15C18 14.4696 18.2107 13.9609 18.5858 13.5858C18.9609 13.2107 19.4696 13 20 13V13Z" fill="#D0D8DA"/>
<path d="M29 15V18H18V16H22.17C23.0341 16.0002 23.8835 15.7764 24.6353 15.3505C25.3872 14.9247 26.0159 14.3112 26.46 13.57L26.8 13H27C27.5299 13.0016 28.0377 13.2128 28.4125 13.5875C28.7872 13.9623 28.9984 14.4701 29 15Z" fill="#93999A"/>
<path d="M52 14H55C55.5304 14 56.0391 14.2107 56.4142 14.5858C56.7893 14.9609 57 15.4696 57 16V18H50V16C50 15.4696 50.2107 14.9609 50.5858 14.5858C50.9609 14.2107 51.4696 14 52 14V14Z" fill="#E9F1F2"/>
<path d="M57 16V18H50V16C50.0016 15.4701 50.2128 14.9623 50.5875 14.5875C50.9623 14.2128 51.4701 14.0016 52 14C52.0016 14.5299 52.2128 15.0377 52.5875 15.4125C52.9623 15.7872 53.4701 15.9984 54 16H57Z" fill="#D0D8DA"/>
<path d="M3 26H61V52C61 53.0609 60.5786 54.0783 59.8284 54.8284C59.0783 55.5786 58.0609 56 57 56H7C5.93913 56 4.92172 55.5786 4.17157 54.8284C3.42143 54.0783 3 53.0609 3 52V26Z" fill="#93999A"/>
<path d="M61 50V52C61 53.0609 60.5786 54.0783 59.8284 54.8284C59.0783 55.5786 58.0609 56 57 56H7C5.93913 56 4.92172 55.5786 4.17157 54.8284C3.42143 54.0783 3 53.0609 3 52V26H57V46C57 47.0609 57.4214 48.0783 58.1716 48.8284C58.9217 49.5786 59.9391 50 61 50Z" fill="#656B76"/>
<path d="M48 18L45.829 13.658C45.5798 13.1598 45.1968 12.7408 44.723 12.448C44.2491 12.1551 43.7031 12 43.146 12H30.854C30.2969 12 29.7509 12.1551 29.277 12.448C28.8032 12.7408 28.4202 13.1598 28.171 13.658L26 18H6C5.20435 18 4.44129 18.3161 3.87868 18.8787C3.31607 19.4413 3 20.2044 3 21V26H61V21C61 20.2044 60.6839 19.4413 60.1213 18.8787C59.5587 18.3161 58.7956 18 58 18H48Z" fill="#E9F1F2"/>
<path d="M61 23V26H3V21C3 20.2044 3.31607 19.4413 3.87868 18.8787C4.44129 18.3161 5.20435 18 6 18H8C8 18.7956 8.31607 19.5587 8.87868 20.1213C9.44129 20.6839 10.2044 21 11 21H20.5C20.9657 21 21.4251 20.8916 21.8416 20.6833C22.2582 20.475 22.6206 20.1726 22.9 19.8L24.25 18H26L28.17 13.66C28.4187 13.1619 28.8011 12.7428 29.2744 12.4496C29.7477 12.1564 30.2932 12.0008 30.85 12H33.1C33.2636 12.5765 33.611 13.0838 34.0893 13.4448C34.5676 13.8058 35.1507 14.0008 35.75 14H41.15C41.7068 14.0008 42.2523 14.1564 42.7256 14.4496C43.1989 14.7428 43.5813 15.1619 43.83 15.66L45.45 18.89C45.6156 19.2232 45.8708 19.5036 46.187 19.6997C46.5033 19.8958 46.8679 19.9998 47.24 20H56C56.5243 20.0004 57.0393 20.1382 57.4937 20.3996C57.9481 20.661 58.3261 21.037 58.59 21.49C58.829 21.9268 59.1761 22.295 59.598 22.5593C60.02 22.8237 60.5027 22.9754 61 23V23Z" fill="#D0D8DA"/>
<path d="M37 56C46.9411 56 55 47.9411 55 38C55 28.0589 46.9411 20 37 20C27.0589 20 19 28.0589 19 38C19 47.9411 27.0589 56 37 56Z" fill="#ADE8F4"/>
<path d="M53.08 46.08C51.8021 48.6276 49.9374 50.8353 47.6395 52.5214C45.3416 54.2075 42.6762 55.3239 39.8625 55.7786C37.0489 56.2333 34.1675 56.0134 31.4554 55.1369C28.7434 54.2604 26.2783 52.7525 24.2629 50.7371C22.2475 48.7217 20.7396 46.2566 19.8631 43.5446C18.9866 40.8325 18.7667 37.9511 19.2214 35.1375C19.6761 32.3238 20.7924 29.6584 22.4786 27.3605C24.1647 25.0626 26.3724 23.1979 28.92 21.92C27.2194 25.3003 26.6277 29.1308 27.2292 32.8667C27.8307 36.6026 29.5948 40.0538 32.2705 42.7295C34.9462 45.4052 38.3974 47.1692 42.1333 47.7708C45.8692 48.3723 49.6997 47.7806 53.08 46.08V46.08Z" fill="#48CAE4"/>
<path d="M10 14H12C12.5304 14 13.0391 14.2107 13.4142 14.5858C13.7893 14.9609 14 15.4696 14 16V18H8V16C8 15.4696 8.21071 14.9609 8.58579 14.5858C8.96086 14.2107 9.46957 14 10 14V14Z" fill="#93999A"/>
<path d="M14 16V18H8V16C8.00178 15.6052 8.11924 15.2195 8.33784 14.8908C8.55644 14.562 8.86661 14.3044 9.23 14.15C9.45626 14.6983 9.84041 15.1669 10.3336 15.4963C10.8269 15.8257 11.4069 16.0011 12 16H14Z" fill="#656B76"/>
<path d="M37 52C44.732 52 51 45.732 51 38C51 30.268 44.732 24 37 24C29.268 24 23 30.268 23 38C23 45.732 29.268 52 37 52Z" fill="#00B4D8"/>
<path d="M46.91 47.89C44.2843 50.5157 40.7232 51.9907 37.01 51.9907C33.2968 51.9907 29.7356 50.5157 27.11 47.89C24.4843 45.2644 23.0093 41.7032 23.0093 37.99C23.0093 34.2768 24.4843 30.7157 27.11 28.09C27.0329 28.7237 26.9962 29.3617 27 30C27 34.7739 28.8964 39.3523 32.2721 42.7279C35.6477 46.1036 40.2261 48 45 48C45.6383 48.0038 46.2763 47.9671 46.91 47.89Z" fill="#0096C7"/>
<path d="M37 47C41.9706 47 46 42.9706 46 38C46 33.0294 41.9706 29 37 29C32.0294 29 28 33.0294 28 38C28 42.9706 32.0294 47 37 47Z" fill="#ADE8F4"/>
<path d="M38.66 46.85C37.2217 47.1156 35.7404 47.0274 34.3437 46.5932C32.947 46.159 31.6768 45.3917 30.6426 44.3575C29.6083 43.3232 28.841 42.0531 28.4068 40.6564C27.9726 39.2597 27.8845 37.7784 28.15 36.34C29.0549 38.7378 30.4603 40.9153 32.2725 42.7275C34.0847 44.5397 36.2622 45.9451 38.66 46.85V46.85Z" fill="#48CAE4"/>
<path d="M37 43C39.7614 43 42 40.7614 42 38C42 35.2386 39.7614 33 37 33C34.2386 33 32 35.2386 32 38C32 40.7614 34.2386 43 37 43Z" fill="#0096C7"/>
<path d="M3 26H15V56H7C5.93913 56 4.92172 55.5786 4.17157 54.8284C3.42143 54.0783 3 53.0609 3 52V26Z" fill="#FFEA00"/>
<path d="M15 26V56H7C5.93913 56 4.92172 55.5786 4.17157 54.8284C3.42143 54.0783 3 53.0609 3 52V26H6V46C6 47.0609 6.42143 48.0783 7.17157 48.8284C7.92172 49.5786 8.93913 50 10 50C10.7956 50 11.5587 49.6839 12.1213 49.1213C12.6839 48.5587 13 47.7956 13 47V26H15Z" fill="#FFD000"/>
<path d="M3 31H9C9.53043 31 10.0391 31.2107 10.4142 31.5858C10.7893 31.9609 11 32.4696 11 33C11 33.5304 10.7893 34.0391 10.4142 34.4142C10.0391 34.7893 9.53043 35 9 35H3V31Z" fill="#FFD000"/>
<path d="M3 39H9C9.53043 39 10.0391 39.2107 10.4142 39.5858C10.7893 39.9609 11 40.4696 11 41C11 41.5304 10.7893 42.0391 10.4142 42.4142C10.0391 42.7893 9.53043 43 9 43H3V39Z" fill="#FFD000"/>
<path d="M3 47H9C9.53043 47 10.0391 47.2107 10.4142 47.5858C10.7893 47.9609 11 48.4696 11 49C11 49.5304 10.7893 50.0391 10.4142 50.4142C10.0391 50.7893 9.53043 51 9 51H3V47Z" fill="#FFD000"/>
<path d="M6 31H3V35H6V31Z" fill="#FFB700"/>
<path d="M6 39H3V43H6V39Z" fill="#FFB700"/>
<path d="M10.79 49.89C10.6933 50.0834 10.5649 50.2591 10.41 50.41C10.2266 50.598 10.0073 50.7471 9.76505 50.8485C9.52279 50.9499 9.2626 51.0014 9 51H3V47H6.13C6.35032 47.8588 6.85028 48.6198 7.55101 49.163C8.25175 49.7062 9.11338 50.0007 10 50C10.2671 49.9992 10.5328 49.9622 10.79 49.89V49.89Z" fill="#FFB700"/>
<path d="M39 39C40.1046 39 41 38.1046 41 37C41 35.8954 40.1046 35 39 35C37.8954 35 37 35.8954 37 37C37 38.1046 37.8954 39 39 39Z" fill="#48CAE4"/>
<path d="M58 17V16C58 15.2044 57.6839 14.4413 57.1213 13.8787C56.5587 13.3161 55.7956 13 55 13H52C51.2044 13 50.4413 13.3161 49.8787 13.8787C49.3161 14.4413 49 15.2044 49 16V17H48.618L46.725 13.213C46.3953 12.547 45.8856 11.9867 45.2538 11.5956C44.6219 11.2045 43.8931 10.9981 43.15 11H30.85C30.3233 10.9996 29.8018 11.1041 29.3159 11.3074C28.83 11.5107 28.3895 11.8087 28.02 12.184C27.6935 12.063 27.3482 12.0008 27 12H20C19.2044 12 18.4413 12.3161 17.8787 12.8787C17.3161 13.4413 17 14.2044 17 15V17H15V16C15 15.2044 14.6839 14.4413 14.1213 13.8787C13.5587 13.3161 12.7956 13 12 13H10C9.20435 13 8.44129 13.3161 7.87868 13.8787C7.31607 14.4413 7 15.2044 7 16V17H6C4.93913 17 3.92172 17.4214 3.17157 18.1716C2.42143 18.9217 2 19.9391 2 21V35C2 35.2652 2.10536 35.5196 2.29289 35.7071C2.48043 35.8947 2.73478 36 3 36H9C9.79565 36 10.5587 35.6839 11.1213 35.1213C11.6839 34.5587 12 33.7957 12 33C12 32.2044 11.6839 31.4413 11.1213 30.8787C10.5587 30.3161 9.79565 30 9 30H4V27H21.537C19.9383 29.2336 18.8448 31.7883 18.3324 34.4868C17.82 37.1853 17.901 39.9631 18.5698 42.6272C19.2386 45.2912 20.4791 47.7779 22.2053 49.9145C23.9314 52.051 26.1019 53.7864 28.566 55H16V30C16 29.7348 15.8946 29.4804 15.7071 29.2929C15.5196 29.1054 15.2652 29 15 29C14.7348 29 14.4804 29.1054 14.2929 29.2929C14.1054 29.4804 14 29.7348 14 30V55H7C6.20435 55 5.44129 54.6839 4.87868 54.1213C4.31607 53.5587 4 52.7957 4 52V48H9C9.26522 48 9.51957 48.1054 9.70711 48.2929C9.89464 48.4804 10 48.7348 10 49C10 49.2652 9.89464 49.5196 9.70711 49.7071C9.51957 49.8947 9.26522 50 9 50H7C6.73478 50 6.48043 50.1054 6.29289 50.2929C6.10536 50.4804 6 50.7348 6 51C6 51.2652 6.10536 51.5196 6.29289 51.7071C6.48043 51.8947 6.73478 52 7 52H9C9.79565 52 10.5587 51.6839 11.1213 51.1213C11.6839 50.5587 12 49.7957 12 49C12 48.2044 11.6839 47.4413 11.1213 46.8787C10.5587 46.3161 9.79565 46 9 46H4V44H9C9.79565 44 10.5587 43.6839 11.1213 43.1213C11.6839 42.5587 12 41.7957 12 41C12 40.2044 11.6839 39.4413 11.1213 38.8787C10.5587 38.3161 9.79565 38 9 38H3C2.73478 38 2.48043 38.1054 2.29289 38.2929C2.10536 38.4804 2 38.7348 2 39V52C2.00159 53.3256 2.52888 54.5965 3.46622 55.5338C4.40356 56.4711 5.6744 56.9984 7 57H57C58.3256 56.9984 59.5964 56.4711 60.5338 55.5338C61.4711 54.5965 61.9984 53.3256 62 52V40C62 39.7348 61.8946 39.4804 61.7071 39.2929C61.5196 39.1054 61.2652 39 61 39C60.7348 39 60.4804 39.1054 60.2929 39.2929C60.1054 39.4804 60 39.7348 60 40V52C60 52.7957 59.6839 53.5587 59.1213 54.1213C58.5587 54.6839 57.7956 55 57 55H45.434C47.8991 53.7874 50.0705 52.0523 51.7971 49.9155C53.5238 47.7787 54.7643 45.2915 55.4324 42.6267C56.1005 39.962 56.1801 37.1837 55.6658 34.4851C55.1514 31.7864 54.0554 29.2322 52.454 27H60V36C60 36.2652 60.1054 36.5196 60.2929 36.7071C60.4804 36.8947 60.7348 37 61 37C61.2652 37 61.5196 36.8947 61.7071 36.7071C61.8946 36.5196 62 36.2652 62 36V21C62 19.9391 61.5786 18.9217 60.8284 18.1716C60.0783 17.4214 59.0609 17 58 17ZM4 40H9C9.26522 40 9.51957 40.1054 9.70711 40.2929C9.89464 40.4804 10 40.7348 10 41C10 41.2652 9.89464 41.5196 9.70711 41.7071C9.51957 41.8947 9.26522 42 9 42H4V40ZM51 16C51 15.7348 51.1054 15.4804 51.2929 15.2929C51.4804 15.1054 51.7348 15 52 15H55C55.2652 15 55.5196 15.1054 55.7071 15.2929C55.8946 15.4804 56 15.7348 56 16V17H51V16ZM19 15C19 14.7348 19.1054 14.4804 19.2929 14.2929C19.4804 14.1054 19.7348 14 20 14H26.882L25.382 17H19V15ZM9 16C9 15.7348 9.10536 15.4804 9.29289 15.2929C9.48043 15.1054 9.73478 15 10 15H12C12.2652 15 12.5196 15.1054 12.7071 15.2929C12.8946 15.4804 13 15.7348 13 16V17H9V16ZM9 32C9.26522 32 9.51957 32.1054 9.70711 32.2929C9.89464 32.4804 10 32.7348 10 33C10 33.2652 9.89464 33.5196 9.70711 33.7071C9.51957 33.8947 9.26522 34 9 34H4V32H9ZM50.823 25C50.039 24.1644 49.1812 23.4013 48.26 22.72C48.0465 22.5626 47.7792 22.4965 47.5169 22.5361C47.2547 22.5758 47.0189 22.718 46.8615 22.9315C46.7041 23.145 46.6379 23.4123 46.6776 23.6746C46.7173 23.9368 46.8595 24.1726 47.073 24.33C49.2262 25.8986 50.9768 27.9554 52.1809 30.3317C53.3851 32.708 54.0085 35.336 54 38C54 41.3623 53.003 44.6491 51.135 47.4447C49.267 50.2403 46.612 52.4193 43.5056 53.706C40.3993 54.9927 36.9811 55.3293 33.6835 54.6734C30.3858 54.0174 27.3567 52.3983 24.9792 50.0208C22.6017 47.6433 20.9826 44.6142 20.3267 41.3165C19.6707 38.0189 20.0074 34.6007 21.294 31.4944C22.5807 28.3881 24.7597 25.733 27.5553 23.865C30.3509 21.997 33.6377 21 37 21C39.344 20.9975 41.6628 21.4842 43.808 22.429C44.0493 22.5257 44.3187 22.5246 44.5591 22.426C44.7996 22.3274 44.9923 22.1391 45.0963 21.9009C45.2003 21.6627 45.2075 21.3934 45.1163 21.15C45.0252 20.9066 44.8429 20.7083 44.608 20.597C41.0204 19.0219 37.0322 18.5995 33.1942 19.3882C29.3562 20.1769 25.8578 22.1378 23.182 25H4V21C4 20.4696 4.21071 19.9609 4.58579 19.5858C4.96086 19.2107 5.46957 19 6 19H26C26.1858 19.0001 26.368 18.9484 26.5261 18.8507C26.6842 18.753 26.8119 18.6132 26.895 18.447L29.064 14.107C29.2286 13.7741 29.4831 13.4939 29.7988 13.2983C30.1145 13.1026 30.4786 12.9993 30.85 13H43.15C43.5214 12.9993 43.8855 13.1026 44.2012 13.2983C44.5169 13.4939 44.7714 13.7741 44.936 14.107L47.105 18.447C47.1881 18.6132 47.3158 18.753 47.4739 18.8507C47.632 18.9484 47.8142 19.0001 48 19H58C58.5304 19 59.0391 19.2107 59.4142 19.5858C59.7893 19.9609 60 20.4696 60 21V25H50.823Z" fill="#323232"/>
<path d="M13 21H8C7.73478 21 7.48043 21.1054 7.29289 21.2929C7.10536 21.4804 7 21.7348 7 22C7 22.2652 7.10536 22.5196 7.29289 22.7071C7.48043 22.8946 7.73478 23 8 23H13C13.2652 23 13.5196 22.8946 13.7071 22.7071C13.8946 22.5196 14 22.2652 14 22C14 21.7348 13.8946 21.4804 13.7071 21.2929C13.5196 21.1054 13.2652 21 13 21Z" fill="#323232"/>
<path d="M22 38C21.9961 40.2689 22.5098 42.5089 23.502 44.5493C24.4943 46.5898 25.9389 48.377 27.726 49.775C27.8287 49.8602 27.9474 49.924 28.0751 49.9626C28.2028 50.0012 28.3369 50.0138 28.4696 49.9998C28.6022 49.9858 28.7307 49.9454 28.8475 49.8809C28.9644 49.8165 29.0671 49.7293 29.1497 49.6246C29.2323 49.5198 29.2931 49.3996 29.3285 49.271C29.364 49.1423 29.3733 49.0079 29.356 48.8757C29.3387 48.7434 29.2951 48.6159 29.2278 48.5007C29.1605 48.3855 29.0708 48.285 28.964 48.205C26.3795 46.1673 24.6628 43.2263 24.1595 39.9738C23.6561 36.7214 24.4035 33.399 26.2511 30.6754C28.0988 27.9518 30.9095 26.0291 34.1177 25.2945C37.3258 24.5598 40.6931 25.0677 43.5419 26.7158C46.3907 28.3639 48.5094 31.0299 49.4716 34.1773C50.4338 37.3247 50.1681 40.7197 48.7279 43.6791C47.2878 46.6384 44.7801 48.9424 41.7096 50.1272C38.6391 51.3121 35.2338 51.2898 32.179 50.065C32.0571 50.0162 31.9267 49.9919 31.7954 49.9935C31.6641 49.9951 31.5343 50.0226 31.4136 50.0743C31.2929 50.126 31.1836 50.201 31.0918 50.295C31.0001 50.389 30.9278 50.5001 30.879 50.622C30.8302 50.744 30.8059 50.8743 30.8075 51.0056C30.8091 51.1369 30.8365 51.2667 30.8883 51.3874C30.94 51.5081 31.015 51.6174 31.1089 51.7092C31.2029 51.8009 31.3141 51.8732 31.436 51.922C34.4172 53.1128 37.7018 53.3157 40.8069 52.501C43.912 51.6863 46.6739 49.8968 48.6864 47.3957C50.6989 44.8947 51.8559 41.8139 51.9874 38.6064C52.1189 35.3988 51.2178 32.2337 49.4167 29.5764C47.6156 26.919 45.0095 24.9096 41.9814 23.8434C38.9534 22.7773 35.6632 22.7108 32.5946 23.6536C29.5259 24.5965 26.8407 26.4989 24.9336 29.0813C23.0266 31.6637 21.9983 34.7898 22 38V38Z" fill="#323232"/>
<path d="M42.317 29.541C40.2312 28.2279 37.7347 27.7293 35.3046 28.1405C32.8744 28.5518 30.681 29.844 29.1434 31.7703C27.6059 33.6967 26.832 36.122 26.9696 38.5828C27.1073 41.0437 28.1468 43.3675 29.8896 45.1104C31.6325 46.8532 33.9563 47.8927 36.4172 48.0304C38.878 48.168 41.3033 47.3941 43.2297 45.8566C45.156 44.319 46.4482 42.1256 46.8595 39.6954C47.2707 37.2653 46.7721 34.7688 45.459 32.683C45.3909 32.5681 45.3005 32.4679 45.1931 32.3885C45.0856 32.3091 44.9634 32.252 44.8335 32.2207C44.7037 32.1893 44.5688 32.1842 44.437 32.2058C44.3052 32.2274 44.179 32.2752 44.0659 32.3464C43.9529 32.4175 43.8552 32.5106 43.7787 32.6202C43.7022 32.7297 43.6485 32.8534 43.6206 32.9841C43.5928 33.1147 43.5914 33.2497 43.6165 33.3809C43.6416 33.5121 43.6928 33.6369 43.767 33.748C44.8177 35.4172 45.2166 37.415 44.8875 39.3597C44.5583 41.3044 43.5241 43.0597 41.9826 44.2901C40.441 45.5204 38.5002 46.1397 36.5309 46.0295C34.5616 45.9193 32.7019 45.0874 31.3072 43.6928C29.9126 42.2981 29.0807 40.4384 28.9705 38.4691C28.8603 36.4998 29.4796 34.559 30.7099 33.0174C31.9403 31.4759 33.6956 30.4417 35.6403 30.1125C37.585 29.7834 39.5828 30.1823 41.252 31.233C41.3631 31.3072 41.4879 31.3584 41.6191 31.3835C41.7503 31.4086 41.8853 31.4072 42.0159 31.3794C42.1466 31.3515 42.2703 31.2978 42.3798 31.2213C42.4894 31.1448 42.5825 31.0471 42.6536 30.9341C42.7248 30.821 42.7726 30.6948 42.7942 30.563C42.8158 30.4312 42.8107 30.2963 42.7793 30.1665C42.748 30.0366 42.6909 29.9144 42.6115 29.8069C42.5321 29.6995 42.4319 29.6091 42.317 29.541V29.541Z" fill="#323232"/>
<path d="M37 32C35.8133 32 34.6533 32.3519 33.6666 33.0112C32.6799 33.6705 31.9109 34.6075 31.4567 35.7039C31.0026 36.8003 30.8838 38.0067 31.1153 39.1705C31.3468 40.3344 31.9182 41.4035 32.7574 42.2426C33.5965 43.0818 34.6656 43.6532 35.8295 43.8847C36.9933 44.1162 38.1997 43.9974 39.2961 43.5433C40.3925 43.0892 41.3295 42.3201 41.9888 41.3334C42.6481 40.3467 43 39.1867 43 38C42.9984 36.4092 42.3658 34.884 41.2409 33.7591C40.116 32.6342 38.5908 32.0016 37 32V32ZM37 42C36.2089 42 35.4355 41.7654 34.7777 41.3259C34.1199 40.8864 33.6072 40.2616 33.3045 39.5307C33.0017 38.7998 32.9225 37.9956 33.0769 37.2196C33.2312 36.4437 33.6122 35.731 34.1716 35.1716C34.731 34.6122 35.4437 34.2312 36.2196 34.0769C36.9956 33.9225 37.7998 34.0017 38.5307 34.3045C39.2616 34.6072 39.8864 35.1199 40.3259 35.7777C40.7654 36.4355 41 37.2089 41 38C41 39.0609 40.5786 40.0783 39.8284 40.8284C39.0783 41.5786 38.0609 42 37 42Z" fill="#323232"/>
</svg>
