<?xml version="1.0" encoding="UTF-8" standalone="no"?> <svg width="512" height="512" viewBox="0 0 512 512" fill="none" xmlns="http://www.w3.org/2000/svg">
<path d="M304 24H208C203.757 24 199.687 25.6857 196.686 28.6863C193.686 31.6869 192 35.7565 192 40V136H320V40C320 35.7565 318.314 31.6869 315.314 28.6863C312.313 25.6857 308.243 24 304 24V24Z" fill="#5CA4CC"/>
<path d="M176 136V152C176 156.243 177.686 160.313 180.686 163.314C183.687 166.314 187.757 168 192 168H320C324.243 168 328.313 166.314 331.314 163.314C334.314 160.313 336 156.243 336 152V136H176Z" fill="#338DBF"/>
<path d="M403.783 109.629C385.661 91.2914 364.282 76.4907 340.738 65.9844L347.264 51.375C372.615 62.6872 395.637 78.6239 415.15 98.3691L403.783 109.629Z" fill="#DFDFDF"/>
<path d="M59.834 186.666L44.748 181.334C54.9397 152.693 70.8252 126.414 91.447 104.079C112.069 81.7433 137 63.8152 164.737 51.375L171.263 65.9844C145.504 77.5358 122.352 94.1837 103.201 114.925C84.0507 135.665 69.2984 160.069 59.834 186.666V186.666Z" fill="#DFDFDF"/>
<path d="M98.3701 415.15C74.3908 391.363 56.0651 362.49 44.748 330.666L59.834 325.334C70.344 354.885 87.3621 381.695 109.63 403.783L98.3701 415.15Z" fill="#DFDFDF"/>
<path d="M430.029 397.041L417.605 386.96C425.422 377.324 432.364 367.011 438.351 356.143L452.368 363.857C445.922 375.56 438.446 386.665 430.029 397.041V397.041Z" fill="#DFDFDF"/>
<path d="M244.438 57.3573L270.015 74.4091C271.111 75.1397 272.01 76.1295 272.631 77.2907C273.253 78.4519 273.578 79.7485 273.578 81.0655C273.578 82.3826 273.253 83.6792 272.631 84.8404C272.01 86.0016 271.111 86.9914 270.015 87.7219L244.438 104.774C243.233 105.577 241.833 106.038 240.386 106.108C238.94 106.178 237.502 105.854 236.225 105.171C234.948 104.488 233.881 103.471 233.137 102.228C232.393 100.986 232 99.5654 232 98.1174V64.0137C232 62.5657 232.393 61.1448 233.137 59.9026C233.881 58.6605 234.948 57.6435 236.225 56.9603C237.502 56.277 238.94 55.9531 240.386 56.023C241.833 56.0929 243.233 56.5541 244.438 57.3573Z" fill="#CBE2EF"/>
<path d="M272 312C302.928 312 328 286.928 328 256C328 225.072 302.928 200 272 200C241.072 200 216 225.072 216 256C216 286.928 241.072 312 272 312Z" fill="#FDA5A3"/>
<path d="M253.658 285.657L242.344 274.343L264.001 252.687V224H280.001V259.313L253.658 285.657Z" fill="#F9DBDB"/>
<path d="M56 208H40C31.1634 208 24 215.163 24 224V288C24 296.837 31.1634 304 40 304H56C64.8366 304 72 296.837 72 288V224C72 215.163 64.8366 208 56 208Z" fill="#00B378"/>
<path d="M128 240H72V272H128V240Z" fill="#00A16C"/>
<path d="M160 208H144C135.163 208 128 215.163 128 224V288C128 296.837 135.163 304 144 304H160C168.837 304 176 296.837 176 288V224C176 215.163 168.837 208 160 208Z" fill="#00B378"/>
<path d="M96 440C91.7565 440 87.6869 441.686 84.6863 444.686C81.6857 447.687 80 451.757 80 456C80 460.243 81.6857 464.313 84.6863 467.314C87.6869 470.314 91.7565 472 96 472H176V440H96Z" fill="#338DBF"/>
<path d="M264 360H248V376H264V360Z" fill="#CBE2EF"/>
<path d="M176 352H160V368H176V352Z" fill="#CBE2EF"/>
<path d="M184 400H168V416H184V400Z" fill="#CBE2EF"/>
<path d="M208 368H192V384H208V368Z" fill="#CBE2EF"/>
<path d="M232 392H216V408H232V392Z" fill="#CBE2EF"/>
<path d="M232 344H216V360H232V344Z" fill="#CBE2EF"/>
<path d="M280 400H264V416H280V400Z" fill="#CBE2EF"/>
<path d="M384 272L390.248 321.985C390.732 325.854 392.612 329.414 395.536 331.995C398.459 334.576 402.225 336 406.125 336H441.876C445.775 336 449.541 334.576 452.464 331.995C455.388 329.414 457.268 325.854 457.752 321.985L464 272H384Z" fill="#BEBEBE"/>
<path d="M432 216H416V272H432V216Z" fill="#00A16C"/>
<path d="M488 176C472.633 176 457.896 182.104 447.029 192.971L440.971 199.029C435.59 204.41 431.322 210.797 428.411 217.827C425.499 224.857 424 232.391 424 240V240C439.367 240 454.104 233.896 464.971 223.029L471.029 216.971C476.41 211.59 480.678 205.203 483.589 198.173C486.501 191.143 488 183.609 488 176Z" fill="#00B378"/>
<path d="M360 176C375.367 176 390.104 182.104 400.971 192.971L407.029 199.029C412.41 204.41 416.678 210.797 419.589 217.827C422.501 224.857 424 232.391 424 240V240C408.633 240 393.896 233.896 383.029 223.029L376.971 216.971C371.59 211.59 367.322 205.203 364.411 198.173C361.499 191.143 360 183.609 360 176V176Z" fill="#00B378"/>
<path d="M440.689 84.7519L422.912 124.752L437.533 131.25L455.31 91.2499L440.689 84.7519Z" fill="#5CA4CC"/>
<path d="M415.8 140.752L408.689 156.752L423.311 163.25L430.421 147.25L415.8 140.752Z" fill="#5CA4CC"/>
<path d="M299.313 356.686L324.686 331.313C326.172 329.828 327.935 328.649 329.877 327.845C331.818 327.041 333.898 326.627 336 326.627C338.101 326.627 340.181 327.041 342.122 327.845C344.064 328.649 345.828 329.828 347.313 331.313L363.313 347.313C364.799 348.799 365.978 350.563 366.782 352.504C367.586 354.445 368 356.526 368 358.627V376L436 444C437.575 445.575 438.825 447.446 439.678 449.505C440.531 451.564 440.97 453.771 440.97 456C440.97 458.228 440.531 460.435 439.678 462.494C438.825 464.553 437.575 466.424 436 468V468C434.424 469.575 432.553 470.825 430.494 471.678C428.435 472.531 426.228 472.97 424 472.97C421.771 472.97 419.564 472.531 417.505 471.678C415.446 470.825 413.575 469.575 412 468L344 400H326.627C324.526 400 322.445 399.586 320.504 398.782C318.563 397.978 316.799 396.799 315.313 395.313L299.313 379.313C297.828 377.828 296.649 376.064 295.845 374.122C295.041 372.181 294.627 370.101 294.627 368C294.627 365.898 295.041 363.818 295.845 361.877C296.649 359.935 297.828 358.172 299.313 356.686Z" fill="#338DBF"/>
<path d="M480.689 84.7519L462.912 124.752L477.533 131.25L495.31 91.2499L480.689 84.7519Z" fill="#5CA4CC"/>
<path d="M455.8 140.752L448.689 156.752L463.311 163.25L470.421 147.25L455.8 140.752Z" fill="#5CA4CC"/>
<path d="M200 488H312C320.487 488 328.626 484.629 334.627 478.627C340.629 472.626 344 464.487 344 456V440H168V456C168 464.487 171.371 472.626 177.373 478.627C183.374 484.629 191.513 488 200 488Z" fill="#5CA4CC"/>
<path d="M282.502 136H320V90.0234C310.813 107.776 298.045 123.431 282.502 136V136Z" fill="#4E8CAE"/>
<path d="M192 168H320C324.243 168 328.313 166.314 331.314 163.314C334.314 160.313 336 156.243 336 152V136H282.501C256.907 156.748 224.948 168.048 192 168V168Z" fill="#2C78A3"/>
<path d="M249 307.056C259.364 311.726 270.904 313.132 282.086 311.085C293.267 309.039 303.562 303.638 311.6 295.6C319.638 287.562 325.039 277.267 327.086 266.086C329.132 254.904 327.726 243.364 323.056 233C317.662 250.434 308.098 266.29 295.194 279.194C282.29 292.098 266.434 301.662 249 307.056Z" fill="#D78D8B"/>
<path d="M34.207 302.902C36.0529 303.625 38.0175 303.998 40 304H56C60.2435 304 64.3131 302.314 67.3137 299.314C70.3143 296.313 72 292.243 72 288V256C71.9981 266.957 68.2485 277.583 61.3738 286.115C54.499 294.647 44.9129 300.57 34.207 302.902V302.902Z" fill="#009966"/>
<path d="M138.207 302.902C140.053 303.625 142.018 303.998 144 304H160C164.243 304 168.313 302.314 171.314 299.314C174.314 296.313 176 292.243 176 288V256C175.998 266.957 172.248 277.583 165.374 286.115C158.499 294.647 148.913 300.57 138.207 302.902V302.902Z" fill="#009966"/>
<path d="M96 272H128V240C128 248.487 124.629 256.626 118.627 262.627C112.626 268.629 104.487 272 96 272Z" fill="#00895C"/>
<path d="M401.602 335.344C403.07 335.778 404.593 335.999 406.124 336H441.875C445.775 336 449.541 334.576 452.464 331.995C455.388 329.414 457.268 325.854 457.752 321.985L464 272H463.547C461.759 287.952 454.692 302.849 443.469 314.326C432.246 325.802 417.51 333.2 401.602 335.344V335.344Z" fill="#A2A2A2"/>
<path d="M472 264H376V280H472V264Z" fill="#8C8C8C"/>
<path d="M390.805 446.805L412 467.999C413.575 469.575 415.446 470.825 417.505 471.678C419.564 472.531 421.771 472.97 424 472.97C426.228 472.97 428.435 472.531 430.494 471.678C432.553 470.825 434.424 469.575 436 467.999C437.575 466.423 438.825 464.553 439.678 462.494C440.531 460.435 440.97 458.228 440.97 455.999C440.97 453.771 440.531 451.564 439.678 449.505C438.825 447.446 437.575 445.575 436 443.999L414.805 422.805C407.72 431.671 399.671 439.72 390.805 446.805V446.805Z" fill="#2C78A3"/>
<path d="M256 488H312C320.487 488 328.626 484.629 334.627 478.627C340.629 472.626 344 464.487 344 456V440H334.404C327.03 454.451 315.805 466.582 301.968 475.053C288.132 483.523 272.223 488.004 256 488V488Z" fill="#4E8CAE"/>
<path d="M415.15 98.3691C395.637 78.6239 372.615 62.6872 347.264 51.375L340.738 65.9844C364.282 76.4907 385.661 91.2914 403.783 109.629L415.15 98.3691Z" fill="black"/>
<path d="M171.263 65.9844L164.737 51.375C137 63.8152 112.069 81.7433 91.447 104.079C70.8252 126.414 54.9397 152.693 44.748 181.334L59.834 186.666C69.2984 160.069 84.0507 135.665 103.201 114.925C122.352 94.1837 145.504 77.5358 171.263 65.9844Z" fill="black"/>
<path d="M109.63 403.783C87.3621 381.695 70.344 354.885 59.834 325.334L44.748 330.666C56.0651 362.49 74.3908 391.363 98.3701 415.15L109.63 403.783Z" fill="black"/>
<path d="M417.605 386.96L430.029 397.041C438.446 386.665 445.922 375.56 452.368 363.857L438.351 356.143C432.364 367.011 425.422 377.324 417.605 386.96V386.96Z" fill="black"/>
<path d="M274.453 67.7527L248.875 50.701V50.7005C246.465 49.0942 243.665 48.172 240.772 48.0323C237.88 47.8926 235.003 48.5405 232.45 49.9071C229.897 51.2737 227.762 53.3076 226.274 55.7919C224.786 58.2763 224 61.118 224 64.014V98.1175C223.998 101.014 224.783 103.857 226.271 106.342C227.759 108.828 229.893 110.863 232.447 112.229C235.001 113.596 237.879 114.244 240.772 114.103C243.665 113.962 246.466 113.038 248.875 111.43L274.453 94.3787C276.645 92.9176 278.442 90.938 279.685 88.6156C280.928 86.2932 281.578 83.6998 281.578 81.0657C281.578 78.4316 280.928 75.8383 279.685 73.5158C278.442 71.1934 276.645 69.2138 274.453 67.7527V67.7527ZM240 98.1175L239.958 63.9891C239.973 63.9962 239.987 64.0045 240 64.014V64.0135L265.578 81.0657L240 98.1175Z" fill="black"/>
<path d="M336 256C336 243.342 332.246 230.968 325.214 220.444C318.182 209.919 308.186 201.716 296.492 196.872C284.797 192.028 271.929 190.76 259.514 193.23C247.099 195.699 235.696 201.795 226.745 210.745C217.795 219.696 211.699 231.099 209.23 243.514C206.76 255.929 208.028 268.797 212.872 280.492C217.716 292.186 225.919 302.182 236.444 309.214C246.968 316.246 259.342 320 272 320C288.968 319.981 305.236 313.232 317.234 301.234C329.232 289.236 335.981 272.968 336 256ZM272 304C262.507 304 253.226 301.185 245.333 295.911C237.439 290.636 231.287 283.14 227.654 274.369C224.021 265.598 223.07 255.947 224.922 246.636C226.774 237.325 231.346 228.772 238.059 222.059C244.772 215.346 253.325 210.774 262.636 208.922C271.947 207.07 281.598 208.021 290.369 211.654C299.14 215.287 306.636 221.439 311.911 229.333C317.185 237.226 320 246.507 320 256C319.986 268.726 314.924 280.927 305.925 289.925C296.927 298.924 284.726 303.986 272 304V304Z" fill="black"/>
<path d="M264.001 252.687L242.344 274.343L253.658 285.657L280.001 259.313V224H264.001V252.687Z" fill="black"/>
<path d="M80 288V280H120V288C120.007 294.363 122.538 300.463 127.037 304.963C131.537 309.462 137.637 311.993 144 312H160C166.363 311.993 172.463 309.462 176.963 304.963C181.462 300.463 183.993 294.363 184 288V224C183.993 217.637 181.462 211.537 176.963 207.037C172.463 202.538 166.363 200.007 160 200H144C137.637 200.007 131.537 202.538 127.037 207.037C122.538 211.537 120.007 217.637 120 224V232H80V224C79.9928 217.637 77.4619 211.537 72.9626 207.037C68.4633 202.538 62.363 200.007 56 200H40C33.637 200.007 27.5367 202.538 23.0374 207.037C18.5381 211.537 16.0072 217.637 16 224V288C16.0072 294.363 18.5381 300.463 23.0374 304.963C27.5367 309.462 33.637 311.993 40 312H56C62.363 311.993 68.4633 309.462 72.9626 304.963C77.4619 300.463 79.9928 294.363 80 288V288ZM136 224C136.002 221.879 136.846 219.846 138.346 218.346C139.846 216.846 141.879 216.002 144 216H160C162.121 216.002 164.154 216.846 165.654 218.346C167.154 219.846 167.998 221.879 168 224V288C167.998 290.121 167.154 292.154 165.654 293.654C164.154 295.154 162.121 295.998 160 296H144C141.879 295.998 139.846 295.154 138.346 293.654C136.846 292.154 136.002 290.121 136 288V224ZM80 248H120V264H80V248ZM32 288V224C32.0024 221.879 32.8461 219.846 34.3458 218.346C35.8456 216.846 37.879 216.002 40 216H56C58.121 216.002 60.1544 216.846 61.6542 218.346C63.1539 219.846 63.9976 221.879 64 224V288C63.9976 290.121 63.1539 292.154 61.6542 293.654C60.1544 295.154 58.121 295.998 56 296H40C37.879 295.998 35.8456 295.154 34.3458 293.654C32.8461 292.154 32.0024 290.121 32 288V288Z" fill="black"/>
<path d="M96 432C89.6348 432 83.5303 434.529 79.0294 439.029C74.5286 443.53 72 449.635 72 456C72 462.365 74.5286 468.47 79.0294 472.971C83.5303 477.471 89.6348 480 96 480H168V479.972C171.721 484.947 176.551 488.986 182.105 491.768C187.66 494.551 193.787 496 200 496H312C322.605 495.988 332.772 491.77 340.271 484.271C347.77 476.772 351.988 466.605 352 456V432H96ZM96 464C93.8783 464 91.8434 463.157 90.3431 461.657C88.8429 460.157 88 458.122 88 456C88 453.878 88.8429 451.843 90.3431 450.343C91.8434 448.843 93.8783 448 96 448H160V456C159.999 458.687 160.269 461.367 160.805 464H96ZM336 456C335.993 462.363 333.462 468.463 328.963 472.963C324.463 477.462 318.363 479.993 312 480H200C193.637 479.993 187.537 477.462 183.037 472.963C178.538 468.463 176.007 462.363 176 456V448H336V456Z" fill="black"/>
<path d="M264 360H248V376H264V360Z" fill="black"/>
<path d="M176 352H160V368H176V352Z" fill="black"/>
<path d="M184 400H168V416H184V400Z" fill="black"/>
<path d="M208 368H192V384H208V368Z" fill="black"/>
<path d="M232 392H216V408H232V392Z" fill="black"/>
<path d="M232 344H216V360H232V344Z" fill="black"/>
<path d="M280 400H264V416H280V400Z" fill="black"/>
<path d="M432 247.503C446.627 245.758 460.238 239.128 470.628 228.686L476.687 222.628C482.829 216.519 487.699 209.252 491.014 201.248C494.329 193.245 496.024 184.663 496 176V168H488C479.337 167.977 470.755 169.671 462.752 172.987C454.748 176.302 447.481 181.172 441.372 187.314L435.314 193.373C430.84 197.842 427.031 202.929 424 208.478C420.97 202.928 417.16 197.842 412.687 193.373L406.628 187.314C400.519 181.172 393.253 176.302 385.249 172.987C377.245 169.671 368.663 167.977 360 168H352V176C351.977 184.663 353.672 193.245 356.987 201.248C360.302 209.252 365.171 216.519 371.314 222.628L377.372 228.686C387.763 239.128 401.373 245.758 416 247.503V264H368V280H376.938L382.31 322.977C383.043 328.778 385.866 334.113 390.25 337.983C394.634 341.853 400.278 343.992 406.125 344H441.875C447.723 343.992 453.367 341.853 457.75 337.983C462.134 334.113 464.957 328.778 465.691 322.977L471.063 280H480V264H432V247.503ZM446.628 204.686L452.687 198.628C459.896 191.378 469.171 186.535 479.24 184.761C477.465 194.83 472.622 204.105 465.372 211.314L459.314 217.373C452.104 224.622 442.83 229.466 432.761 231.239C434.535 221.17 439.379 211.896 446.628 204.686V204.686ZM388.687 217.373L382.628 211.314C375.379 204.105 370.535 194.83 368.761 184.761C378.83 186.535 388.104 191.378 395.314 198.628L401.372 204.686C408.622 211.896 413.465 221.17 415.24 231.239C405.171 229.465 395.896 224.622 388.687 217.373V217.373ZM454.938 280L449.814 320.992C449.569 322.926 448.628 324.705 447.167 325.995C445.706 327.285 443.824 327.998 441.875 328H406.125C404.176 327.998 402.295 327.285 400.833 325.995C399.372 324.705 398.431 322.926 398.187 320.992L393.063 280H454.938Z" fill="black"/>
<path d="M440.689 84.7519L422.912 124.752L437.533 131.25L455.31 91.2499L440.689 84.7519Z" fill="black"/>
<path d="M415.801 140.75L408.689 156.75L423.31 163.248L430.422 147.248L415.801 140.75Z" fill="black"/>
<path d="M168 152C168.007 158.363 170.538 164.463 175.037 168.963C179.537 173.462 185.637 175.993 192 176H320C326.363 175.993 332.463 173.462 336.963 168.963C341.462 164.463 343.993 158.363 344 152V128H328V40C327.993 33.637 325.462 27.5367 320.963 23.0374C316.463 18.5381 310.363 16.0072 304 16H208C201.637 16.0072 195.537 18.5381 191.037 23.0374C186.538 27.5367 184.007 33.637 184 40V128H168V152ZM200 40C200.002 37.879 200.846 35.8456 202.346 34.3458C203.846 32.8461 205.879 32.0024 208 32H304C306.121 32.0024 308.154 32.8461 309.654 34.3458C311.154 35.8456 311.998 37.879 312 40V128H200V40ZM184 144H328V152C327.998 154.121 327.154 156.154 325.654 157.654C324.154 159.154 322.121 159.998 320 160H192C189.879 159.998 187.846 159.154 186.346 157.654C184.846 156.154 184.002 154.121 184 152V144Z" fill="black"/>
<path d="M376 372.687V358.627C376.009 355.474 375.392 352.351 374.186 349.438C372.979 346.525 371.207 343.88 368.971 341.657L352.971 325.657C348.467 321.163 342.363 318.639 336 318.639C329.637 318.639 323.534 321.163 319.03 325.657L293.657 351.03C289.163 355.534 286.639 361.637 286.639 368C286.639 374.363 289.163 380.466 293.657 384.97L309.657 400.97C311.88 403.206 314.525 404.978 317.438 406.185C320.351 407.392 323.474 408.009 326.627 408H340.687L406.343 473.657C411.027 478.336 417.377 480.964 423.998 480.963C430.619 480.962 436.968 478.331 441.65 473.65C446.331 468.968 448.962 462.619 448.964 455.998C448.965 449.377 446.337 443.027 441.658 438.343L376 372.687ZM430.343 462.343C429.51 463.176 428.521 463.837 427.433 464.288C426.345 464.739 425.178 464.971 424 464.971C422.822 464.971 421.656 464.739 420.568 464.288C419.479 463.837 418.491 463.176 417.658 462.343L347.314 392H326.627C325.577 392.003 324.535 391.797 323.565 391.395C322.594 390.993 321.712 390.402 320.971 389.657L304.971 373.657C303.473 372.155 302.632 370.121 302.632 368C302.632 365.879 303.473 363.845 304.971 362.343L330.344 336.97C331.845 335.472 333.88 334.631 336 334.631C338.121 334.631 340.155 335.472 341.657 336.97L357.657 352.97C358.402 353.711 358.993 354.593 359.395 355.564C359.798 356.535 360.003 357.576 360 358.627V379.313L430.343 449.657C432.023 451.34 432.967 453.622 432.967 456C432.967 458.378 432.023 460.66 430.343 462.343Z" fill="black"/>
<path d="M480.689 84.7519L462.912 124.752L477.533 131.25L495.31 91.2499L480.689 84.7519Z" fill="black"/>
<path d="M455.801 140.75L448.689 156.75L463.31 163.248L470.422 147.248L455.801 140.75Z" fill="black"/>
</svg>
